<svg width="47" height="48" viewBox="0 0 47 48" fill="none" xmlns="http://www.w3.org/2000/svg">
<g clip-path="url(#clip0_868_1330)">
<path d="M38.2179 3.44325H30.8597C30.8515 3.44325 30.8436 3.44417 30.8356 3.44444C30.173 2.55154 29.1113 1.97162 27.9165 1.97162H26.0145C25.5067 1.07495 24.5501 0.5 23.5017 0.5C22.4532 0.5 21.4967 1.07495 20.9889 1.97162H19.0868C17.892 1.97162 16.8303 2.55154 16.1678 3.44444C16.1596 3.44417 16.1517 3.44325 16.1435 3.44325H8.78542C6.78217 3.44325 5.15234 5.07307 5.15234 7.07632V43.8669C5.15234 45.8702 6.78217 47.5 8.78542 47.5H38.2179C40.2211 47.5 41.851 45.8702 41.851 43.8669V7.07632C41.851 5.07307 40.2211 3.44325 38.2179 3.44325ZM16.8334 5.6047C16.8334 4.36219 17.8443 3.35127 19.0868 3.35127H21.4294C21.7214 3.35127 21.9817 3.1675 22.0794 2.89249C22.2947 2.28674 22.8663 1.87965 23.5017 1.87965C24.137 1.87965 24.7086 2.28674 24.9239 2.89249C25.0217 3.1675 25.282 3.35127 25.5739 3.35127H27.9165C29.159 3.35127 30.17 4.36219 30.17 5.6047V7.85812H16.8334V5.6047ZM40.4713 43.8669C40.4713 45.1094 39.4604 46.1204 38.2179 46.1204H8.78542C7.54291 46.1204 6.53199 45.1094 6.53199 43.8669V7.07632C6.53199 5.83381 7.54291 4.8229 8.78542 4.8229H15.5393C15.4838 5.07491 15.4537 5.33631 15.4537 5.6047V8.54795C15.4537 8.92891 15.7626 9.23777 16.1435 9.23777H30.8598C31.2407 9.23777 31.5496 8.92891 31.5496 8.54795V5.6047C31.5496 5.33631 31.5194 5.07491 31.464 4.8229H38.2179C39.4604 4.8229 40.4713 5.83381 40.4713 7.07632V43.8669Z" fill="#9D9D9D"/>
<path d="M38.22 6.38672H33.8051C33.4241 6.38672 33.1153 6.69558 33.1153 7.07654C33.1153 7.45751 33.4241 7.76637 33.8051 7.76637H37.5301V33.6118H30.126C28.9342 33.6118 27.9646 34.5814 27.9646 35.7732V40.188C27.9646 40.5691 28.2734 40.8778 28.6544 40.8778C29.0354 40.8778 29.3442 40.5691 29.3442 40.188V35.7732C29.3442 35.3421 29.6949 34.9914 30.126 34.9914H36.5546L28.3687 43.1773H9.4773V7.76637H13.2024C13.5833 7.76637 13.8922 7.45751 13.8922 7.07654C13.8922 6.69558 13.5833 6.38672 13.2024 6.38672H8.78748C8.40651 6.38672 8.09766 6.69558 8.09766 7.07654V43.8671C8.09766 44.2481 8.40651 44.557 8.78748 44.557H28.6545C28.6553 44.557 28.6561 44.5569 28.6568 44.5569C28.6787 44.5568 28.7005 44.5557 28.7223 44.5536C28.7333 44.5525 28.744 44.5504 28.7548 44.5489C28.7662 44.5472 28.7776 44.5459 28.7889 44.5436C28.8013 44.5412 28.8133 44.5378 28.8254 44.5347C28.835 44.5322 28.8446 44.5302 28.8542 44.5274C28.8664 44.5237 28.8782 44.5192 28.8901 44.5148C28.8993 44.5114 28.9087 44.5084 28.9178 44.5046C28.9294 44.4999 28.9405 44.4942 28.9518 44.4889C28.9609 44.4846 28.97 44.4806 28.9789 44.4758C28.9903 44.4698 29.0012 44.4629 29.0122 44.4562C29.0204 44.4512 29.0288 44.4466 29.0368 44.4413C29.0501 44.4324 29.0627 44.4227 29.0753 44.4129C29.0804 44.409 29.0859 44.4054 29.0909 44.4013C29.1093 44.3862 29.127 44.3703 29.1437 44.3533L38.7077 34.7893C38.7088 34.7882 38.7096 34.7869 38.7108 34.7858C38.7309 34.7653 38.7493 34.7434 38.7668 34.7206C38.7715 34.7144 38.7763 34.7081 38.7809 34.7018C38.7981 34.6778 38.8141 34.6529 38.8281 34.6268C38.8296 34.6241 38.8308 34.6211 38.8322 34.6184C38.8448 34.594 38.8557 34.5687 38.8655 34.5428C38.8677 34.5368 38.87 34.5308 38.8721 34.5246C38.8818 34.4961 38.8902 34.4671 38.8962 34.4371C38.8965 34.4355 38.8966 34.4339 38.8969 34.4324C38.9022 34.4052 38.9054 34.3772 38.9073 34.3489C38.9079 34.3407 38.9082 34.3326 38.9085 34.3243C38.9088 34.3167 38.9097 34.3091 38.9097 34.3014V7.07654C38.9098 6.69558 38.6009 6.38672 38.22 6.38672Z" fill="#9D9D9D"/>
<path d="M23.5023 3.44336C23.3211 3.44336 23.1427 3.51694 23.0148 3.64571C22.8861 3.77356 22.8125 3.95199 22.8125 4.13318C22.8125 4.3153 22.8861 4.49281 23.0148 4.62066C23.1427 4.74943 23.3211 4.82301 23.5023 4.82301C23.6835 4.82301 23.862 4.74943 23.9898 4.62066C24.1186 4.49281 24.1921 4.31438 24.1921 4.13318C24.1921 3.95199 24.1186 3.77356 23.9898 3.64571C23.862 3.51694 23.6835 3.44336 23.5023 3.44336Z" fill="#9D9D9D"/>
<path d="M26.4437 14.3884H33.8019C34.1828 14.3884 34.4917 14.0796 34.4917 13.6986C34.4917 13.3176 34.1828 13.0088 33.8019 13.0088H26.4437C26.0628 13.0088 25.7539 13.3176 25.7539 13.6986C25.7539 14.0796 26.0628 14.3884 26.4437 14.3884Z" fill="#9D9D9D"/>
<path d="M24.2406 17.3318H33.8062C34.1871 17.3318 34.496 17.0229 34.496 16.642C34.496 16.261 34.1871 15.9521 33.8062 15.9521H24.2406C23.8596 15.9521 23.5508 16.261 23.5508 16.642C23.5508 17.0229 23.8596 17.3318 24.2406 17.3318Z" fill="#9D9D9D"/>
<path d="M33.8019 18.8955H26.4437C26.0628 18.8955 25.7539 19.2044 25.7539 19.5853C25.7539 19.9663 26.0628 20.2752 26.4437 20.2752H33.8019C34.1828 20.2752 34.4917 19.9663 34.4917 19.5853C34.4917 19.2044 34.1828 18.8955 33.8019 18.8955Z" fill="#9D9D9D"/>
<path d="M33.8043 21.8389H13.2015C12.8206 21.8389 12.5117 22.1477 12.5117 22.5287C12.5117 22.9097 12.8206 23.2185 13.2015 23.2185H33.8043C34.1852 23.2185 34.4941 22.9097 34.4941 22.5287C34.4941 22.1477 34.1852 21.8389 33.8043 21.8389Z" fill="#9D9D9D"/>
<path d="M33.8043 24.7822H13.2015C12.8206 24.7822 12.5117 25.0911 12.5117 25.4721C12.5117 25.853 12.8206 26.1619 13.2015 26.1619H33.8043C34.1852 26.1619 34.4941 25.853 34.4941 25.4721C34.4941 25.0911 34.1852 24.7822 33.8043 24.7822Z" fill="#9D9D9D"/>
<path d="M33.8043 27.7246H13.2015C12.8206 27.7246 12.5117 28.0335 12.5117 28.4144C12.5117 28.7954 12.8206 29.1043 13.2015 29.1043H33.8043C34.1852 29.1043 34.4941 28.7954 34.4941 28.4144C34.4941 28.0335 34.1852 27.7246 33.8043 27.7246Z" fill="#9D9D9D"/>
<path d="M34.4941 31.3588C34.4941 30.9778 34.1852 30.6689 33.8043 30.6689H13.2015C12.8206 30.6689 12.5117 30.9778 12.5117 31.3588C12.5117 31.7397 12.8206 32.0486 13.2015 32.0486H33.8043C34.1852 32.0486 34.4941 31.7397 34.4941 31.3588Z" fill="#9D9D9D"/>
<path d="M25.7091 33.6113H19.8226C19.4417 33.6113 19.1328 33.9202 19.1328 34.3012C19.1328 34.6821 19.4417 34.991 19.8226 34.991H25.7091C26.0901 34.991 26.399 34.6821 26.399 34.3012C26.399 33.9202 26.0901 33.6113 25.7091 33.6113Z" fill="#9D9D9D"/>
<path d="M25.7112 36.5547H22.7679C22.387 36.5547 22.0781 36.8635 22.0781 37.2445C22.0781 37.6255 22.387 37.9343 22.7679 37.9343H25.7112C26.0922 37.9343 26.401 37.6255 26.401 37.2445C26.401 36.8635 26.0922 36.5547 25.7112 36.5547Z" fill="#9D9D9D"/>
</g>
<defs>
<clipPath id="clip0_868_1330">
<rect width="47" height="47" fill="white" transform="translate(0 0.5)"/>
</clipPath>
</defs>
</svg>
